HIERARCHY
ROOT Root
{
  OFFSET 0.0 0.0 0.0
  CHANNELS 6 Xposition Yposition Zposition Zrotation Yrotation Xrotation
  JOINT Hips
  {
    OFFSET 0.0 100.0 0.0
    CHANNELS 6 Xposition Yposition Zposition Zrotation Yrotation Xrotation
    JOINT Spine1
    {
      OFFSET 5.003913 -0.037094 -0.013727
      CHANNELS 3 Zrotation Yrotation Xrotation
      JOINT Spine2
      {
        OFFSET 7.125363 -1e-06 0.0
        CHANNELS 3 Zrotation Yrotation Xrotation
        JOINT Chest
        {
          OFFSET 7.594027 1e-06 0.0
          CHANNELS 3 Zrotation Yrotation Xrotation
          JOINT Neck1
          {
            OFFSET 26.313086 -0.460272 -0.181672
            CHANNELS 3 Zrotation Yrotation Xrotation
            JOINT Neck2
            {
              OFFSET 8.045911 0.0 0.0
              CHANNELS 3 Zrotation Yrotation Xrotation
              JOINT Head
              {
                OFFSET 6.432774 0.0 0.0
                CHANNELS 3 Zrotation Yrotation Xrotation
                JOINT HeadEnd
                {
                  OFFSET 16.169773 0.06451 0.00362
                  CHANNELS 3 Zrotation Yrotation Xrotation
                }
                JOINT Jaw
                {
                  OFFSET 0.108741 3.12938 0.002639
                  CHANNELS 3 Zrotation Yrotation Xrotation
                }
                JOINT LeftEye
                {
                  OFFSET 4.45173 8.166359 3.206392
                  CHANNELS 3 Zrotation Yrotation Xrotation
                }
                JOINT RightEye
                {
                  OFFSET 4.436895 8.135758 -3.222429
                  CHANNELS 3 Zrotation Yrotation Xrotation
                }
              }
            }
          }
          JOINT LeftShoulder
          {
            OFFSET 23.218927 5.195579 1.621656
            CHANNELS 3 Zrotation Yrotation Xrotation
            JOINT LeftArm
            {
              OFFSET 15.902118 2e-06 -2e-06
              CHANNELS 3 Zrotation Yrotation Xrotation
              JOINT LeftForeArm
              {
                OFFSET 28.739307 0.0 -1e-06
                CHANNELS 3 Zrotation Yrotation Xrotation
                JOINT LeftHand
                {
                  OFFSET 27.093981 -4e-06 0.0
                  CHANNELS 3 Zrotation Yrotation Xrotation
                  JOINT LeftHandThumb1
                  {
                    OFFSET 2.276781 3.380274 0.83384
                    CHANNELS 3 Zrotation Yrotation Xrotation
                    JOINT LeftHandThumb2
                    {
                      OFFSET 4.705309 -1e-06 -1e-06
                      CHANNELS 3 Zrotation Yrotation Xrotation
                      JOINT LeftHandThumb3
                      {
                        OFFSET 2.798515 0.0 3e-06
                        CHANNELS 3 Zrotation Yrotation Xrotation
                        JOINT LeftHandThumbEnd
                        {
                          OFFSET 3.180793 4e-06 -4e-06
                          CHANNELS 3 Zrotation Yrotation Xrotation
                        }
                      }
                    }
                  }
                  JOINT LeftHandIndex1
                  {
                    OFFSET 3.247786 2.352677 0.137192
                    CHANNELS 3 Zrotation Yrotation Xrotation
                    JOINT LeftHandIndex2
                    {
                      OFFSET 6.367095 1e-06 0.0
                      CHANNELS 3 Zrotation Yrotation Xrotation
                      JOINT LeftHandIndex3
                      {
                        OFFSET 3.662364 0.0 0.0
                        CHANNELS 3 Zrotation Yrotation Xrotation
                        JOINT LeftHandIndex4
                        {
                          OFFSET 2.329242 4e-06 -4e-06
                          CHANNELS 3 Zrotation Yrotation Xrotation
                          JOINT LeftHandIndexEnd
                          {
                            OFFSET 2.767823 1e-06 0.0
                            CHANNELS 3 Zrotation Yrotation Xrotation
                          }
                        }
                      }
                    }
                  }
                  JOINT LeftHandMiddle1
                  {
                    OFFSET 3.163612 0.945023 -0.406112
                    CHANNELS 3 Zrotation Yrotation Xrotation
                    JOINT LeftHandMiddle2
                    {
                      OFFSET 6.276789 3e-06 0.0
                      CHANNELS 3 Zrotation Yrotation Xrotation
                      JOINT LeftHandMiddle3
                      {
                        OFFSET 4.35652 -1e-06 4e-06
                        CHANNELS 3 Zrotation Yrotation Xrotation
                        JOINT LeftHandMiddle4
                        {
                          OFFSET 2.996877 0.0 8e-06
                          CHANNELS 3 Zrotation Yrotation Xrotation
                          JOINT LeftHandMiddleEnd
                          {
                            OFFSET 2.323256 3e-06 -4e-06
                            CHANNELS 3 Zrotation Yrotation Xrotation
                          }
                        }
                      }
                    }
                  }
                  JOINT LeftHandRing1
                  {
                    OFFSET 2.882606 -0.309162 0.107445
                    CHANNELS 3 Zrotation Yrotation Xrotation
                    JOINT LeftHandRing2
                    {
                      OFFSET 6.033198 0.0 4e-06
                      CHANNELS 3 Zrotation Yrotation Xrotation
                      JOINT LeftHandRing3
                      {
                        OFFSET 4.350578 3e-06 0.0
                        CHANNELS 3 Zrotation Yrotation Xrotation
                        JOINT LeftHandRing4
                        {
                          OFFSET 2.651321 2e-06 -7e-06
                          CHANNELS 3 Zrotation Yrotation Xrotation
                          JOINT LeftHandRingEnd
                          {
                            OFFSET 1.937663 1e-06 -4e-06
                            CHANNELS 3 Zrotation Yrotation Xrotation
                          }
                        }
                      }
                    }
                  }
                  JOINT LeftHandPinky1
                  {
                    OFFSET 2.865315 -1.525436 0.575687
                    CHANNELS 3 Zrotation Yrotation Xrotation
                    JOINT LeftHandPinky2
                    {
                      OFFSET 5.54936 1e-06 -8e-06
                      CHANNELS 3 Zrotation Yrotation Xrotation
                      JOINT LeftHandPinky3
                      {
                        OFFSET 3.070974 0.0 -4e-06
                        CHANNELS 3 Zrotation Yrotation Xrotation
                        JOINT LeftHandPinky4
                        {
                          OFFSET 1.549672 1e-06 0.0
                          CHANNELS 3 Zrotation Yrotation Xrotation
                          JOINT LeftHandPinkyEnd
                          {
                            OFFSET 1.952123 0.0 0.0
                            CHANNELS 3 Zrotation Yrotation Xrotation
                          }
                        }
                      }
                    }
                  }
                }
              }
            }
          }
          JOINT RightShoulder
          {
            OFFSET 23.161716 5.296122 -1.380114
            CHANNELS 3 Zrotation Yrotation Xrotation
            JOINT RightArm
            {
              OFFSET -16.027195 -2e-06 1.1e-05
              CHANNELS 3 Zrotation Yrotation Xrotation
              JOINT RightForeArm
              {
                OFFSET -28.736639 4e-06 2e-06
                CHANNELS 3 Zrotation Yrotation Xrotation
                JOINT RightHand
                {
                  OFFSET -27.133619 6e-06 0.0
                  CHANNELS 3 Zrotation Yrotation Xrotation
                  JOINT RightHandThumb1
                  {
                    OFFSET -2.274328 -3.351035 -0.83067
                    CHANNELS 3 Zrotation Yrotation Xrotation
                    JOINT RightHandThumb2
                    {
                      OFFSET -4.703594 -3e-06 2e-06
                      CHANNELS 3 Zrotation Yrotation Xrotation
                      JOINT RightHandThumb3
                      {
                        OFFSET -2.794935 -4e-06 -3e-06
                        CHANNELS 3 Zrotation Yrotation Xrotation
                        JOINT RightHandThumbEnd
                        {
                          OFFSET -3.183852 4e-06 1e-06
                          CHANNELS 3 Zrotation Yrotation Xrotation
                        }
                      }
                    }
                  }
                  JOINT RightHandIndex1
                  {
                    OFFSET -3.253496 -2.33755 -0.127667
                    CHANNELS 3 Zrotation Yrotation Xrotation
                    JOINT RightHandIndex2
                    {
                      OFFSET -6.344434 0.0 0.0
                      CHANNELS 3 Zrotation Yrotation Xrotation
                      JOINT RightHandIndex3
                      {
                        OFFSET -3.654871 0.0 -8e-06
                        CHANNELS 3 Zrotation Yrotation Xrotation
                        JOINT RightHandIndex4
                        {
                          OFFSET -2.327586 -1e-06 0.0
                          CHANNELS 3 Zrotation Yrotation Xrotation
                          JOINT RightHandIndexEnd
                          {
                            OFFSET -2.770001 3e-06 8e-06
                            CHANNELS 3 Zrotation Yrotation Xrotation
                          }
                        }
                      }
                    }
                  }
                  JOINT RightHandMiddle1
                  {
                    OFFSET -3.168223 -0.944764 0.411762
                    CHANNELS 3 Zrotation Yrotation Xrotation
                    JOINT RightHandMiddle2
                    {
                      OFFSET -6.266691 -1e-06 -4e-06
                      CHANNELS 3 Zrotation Yrotation Xrotation
                      JOINT RightHandMiddle3
                      {
                        OFFSET -4.348901 0.0 0.0
                        CHANNELS 3 Zrotation Yrotation Xrotation
                        JOINT RightHandMiddle4
                        {
                          OFFSET -3.00024 2e-06 -4e-06
                          CHANNELS 3 Zrotation Yrotation Xrotation
                          JOINT RightHandMiddleEnd
                          {
                            OFFSET -2.321477 -4e-06 -4e-06
                            CHANNELS 3 Zrotation Yrotation Xrotation
                          }
                        }
                      }
                    }
                  }
                  JOINT RightHandRing1
                  {
                    OFFSET -2.885654 0.293261 -0.119232
                    CHANNELS 3 Zrotation Yrotation Xrotation
                    JOINT RightHandRing2
                    {
                      OFFSET -6.032835 -1e-06 -4e-06
                      CHANNELS 3 Zrotation Yrotation Xrotation
                      JOINT RightHandRing3
                      {
                        OFFSET -4.33881 0.0 -4e-06
                        CHANNELS 3 Zrotation Yrotation Xrotation
                        JOINT RightHandRing4
                        {
                          OFFSET -2.654903 -4e-06 -4e-06
                          CHANNELS 3 Zrotation Yrotation Xrotation
                          JOINT RightHandRingEnd
                          {
                            OFFSET -1.935122 0.0 4e-06
                            CHANNELS 3 Zrotation Yrotation Xrotation
                          }
                        }
                      }
                    }
                  }
                  JOINT RightHandPinky1
                  {
                    OFFSET -2.866241 1.503904 -0.60527
                    CHANNELS 3 Zrotation Yrotation Xrotation
                    JOINT RightHandPinky2
                    {
                      OFFSET -5.553177 -2e-06 0.0
                      CHANNELS 3 Zrotation Yrotation Xrotation
                      JOINT RightHandPinky3
                      {
                        OFFSET -3.062664 -1e-06 -4e-06
                        CHANNELS 3 Zrotation Yrotation Xrotation
                        JOINT RightHandPinky4
                        {
                          OFFSET -1.546529 2e-06 4e-06
                          CHANNELS 3 Zrotation Yrotation Xrotation
                          JOINT RightHandPinkyEnd
                          {
                            OFFSET -1.952341 0.0 -4e-06
                            CHANNELS 3 Zrotation Yrotation Xrotation
                          }
                        }
                      }
                    }
                  }
                }
              }
            }
          }
        }
      }
    }
    JOINT LeftLeg
    {
      OFFSET -8.443107 2.567604 10.043214
      CHANNELS 3 Zrotation Yrotation Xrotation
      JOINT LeftShin
      {
        OFFSET 43.229198 1e-06 -1e-06
        CHANNELS 3 Zrotation Yrotation Xrotation
        JOINT LeftFoot
        {
          OFFSET 42.298611 1e-06 1e-06
          CHANNELS 3 Zrotation Yrotation Xrotation
          JOINT LeftToeBase
          {
            OFFSET 14.165858 1e-06 0.0
            CHANNELS 3 Zrotation Yrotation Xrotation
            JOINT LeftToeEnd
            {
              OFFSET 6.7141 -0.234461 0.0
              CHANNELS 3 Zrotation Yrotation Xrotation
            }
          }
        }
      }
    }
    JOINT RightLeg
    {
      OFFSET -8.303923 2.592729 -10.047278
      CHANNELS 3 Zrotation Yrotation Xrotation
      JOINT RightShin
      {
        OFFSET -43.369682 0.0 1e-06
        CHANNELS 3 Zrotation Yrotation Xrotation
        JOINT RightFoot
        {
          OFFSET -42.260784 4e-06 2e-06
          CHANNELS 3 Zrotation Yrotation Xrotation
          JOINT RightToeBase
          {
            OFFSET -14.222245 -2e-06 -1e-06
            CHANNELS 3 Zrotation Yrotation Xrotation
            JOINT RightToeEnd
            {
              OFFSET -6.660062 0.232574 -2e-06
              CHANNELS 3 Zrotation Yrotation Xrotation
            }
          }
        }
      }
    }
  }
}
MOTION
Frames: 4
Frame Time: 0.03333333333333333
0.0 0.0 0.0 0.0 -0.0 0.0 3.997675 101.065567 1.430468 90.390991 -1.267812 90.170334 -2.0841 -0.32168 0.089444 -11.474378 -0.495955 -0.137588 17.030613 0.624003 -1.726006 19.307587 -2.904312 2.606045 -2.597055 -0.567986 2.411999 -31.375059 -1.236341 3.660922 6e-06 -0.0 -0.0 -0.0306 0.023803 -0.087484 0.020857 0.035054 -0.101171 0.035335 0.007318 -0.062974 -148.97049 -64.7957 170.33374 33.602543 -47.013885 1.946114 23.447041 0.041083 0.108995 2.042372 -1.323035 5.375181 17.636625 -26.322725 52.411182 -19.466654 -14.395596 29.410385 1e-06 -8.774821 -0.0 16.40958 -18.126518 6.017329 -0.609776 -1.795653 -3.889328 -4.807088 -11.046807 -2.937849 4e-06 -20.976011 -1e-06 -5.019969 -25.033552 -4.031881 6e-06 1e-06 -0.0 -10.634533 -5.68697 -3.565589 10.573271 -17.922945 -3.113899 3e-06 -13.821206 1e-06 -0.501783 -31.181494 -4.027012 -11.691955 -60.120731 7.515112 -13.982712 -7.150197 -2.875043 13.772726 -8.401488 -3.218241 0.347732 -34.211536 0.771653 -0.963031 -17.733364 2.621018 1e-06 -1e-06 1e-06 -17.346416 -20.095213 -4.20178 21.757557 -1.638373 3.866429 2e-06 -6.338822 -1e-06 -1.697589 -22.59174 -6.194008 -1e-06 -4e-06 1e-06 30.325884 -71.063232 168.641037 33.001724 -56.684883 3.442861 26.008688 0.148744 0.268839 1.125102 9.332687 -3.701047 22.18211 -20.375889 49.933311 -16.701811 -16.743526 28.476524 -3e-06 -12.690598 -2e-06 16.033051 -17.646685 2.709383 -0.105919 -1.513856 -4.275879 -5.03904 -5.61287 -2.953556 4e-06 -11.02052 -0.0 -6.111295 -15.89533 -3.840472 -1e-06 -0.0 1e-06 -10.283367 -5.680286 -4.341836 11.02829 -11.302403 -2.372633 -1.384269 -14.238577 -6.320118 -0.625436 -26.924191 -3.827602 -4.084292 -49.278423 -3.77694 -13.708521 -7.363474 -3.720937 18.141146 -14.052736 -3.242675 6e-06 -18.787266 -2e-06 -0.429711 -8.456042 2.555504 -0.0 -0.0 1e-06 -15.923532 -20.094482 -5.473584 30.41921 -7.190825 1.735926 3e-06 -8.162929 -2e-06 -1.861901 -22.861467 -6.167943 0.0 -3e-06 -1e-06 179.870544 1.297635 -17.885 5.52543 0.025277 -0.129573 -74.243637 -8.393867 -6.031636 -4.302974 1.454871 2.162787 -0.999999 -1e-06 -0.0 0.677701 -1.871018 -15.001211 6.442313 -0.006363 -0.217862 -75.140121 -4.003471 -4.655744 -3.942417 0.572801 1.675149 -1.000001 -0.0 0.0 
0.0 0.0 0.0 0.0 -0.0 0.0 3.91009 101.090431 1.307635 90.390404 -1.273727 90.196808 -2.079118 -0.319582 0.078229 -11.46323 -0.472387 -0.052291 17.027018 0.582811 -1.74537 19.33234 -2.983156 2.615065 -2.565678 -0.564533 2.37089 -31.36191 -1.202016 3.684499 6e-06 -0.0 -0.0 -0.022162 0.026029 -0.06058 0.031392 0.041233 -0.071356 0.040674 0.005867 -0.03929 -148.960602 -64.763039 170.418808 33.685219 -47.084579 1.678918 23.353373 -0.028288 0.093046 2.028823 -1.259183 5.498596 17.636631 -26.322729 52.411194 -19.466663 -14.395597 29.410389 -0.0 -8.774822 -2e-06 16.384302 -18.095575 6.004506 -0.609777 -1.795654 -3.889329 -4.807088 -11.04681 -2.937853 4e-06 -20.976015 2e-06 -5.019969 -25.033556 -4.031882 6e-06 1e-06 1e-06 -10.634535 -5.686972 -3.565591 10.573272 -17.922951 -3.113901 4e-06 -13.821211 0.0 -0.501776 -31.181498 -4.027017 -11.634396 -60.0275 7.507259 -13.982712 -7.150196 -2.875044 13.77273 -8.401493 -3.218241 0.347736 -34.211555 0.771654 -0.963029 -17.73337 2.62102 1e-06 0.0 -1e-06 -17.346416 -20.095217 -4.201784 21.757559 -1.638376 3.866426 2e-06 -6.338823 -1e-06 -1.697587 -22.591745 -6.194006 1e-06 -2e-06 -2e-06 30.382601 -71.057724 168.615799 33.478378 -56.662056 3.268665 26.049936 0.155909 0.253682 1.212309 9.326639 -3.654776 22.182116 -20.375895 49.933319 -16.701815 -16.743528 28.476532 -3e-06 -12.690601 -2e-06 16.038925 -17.624191 2.705197 -0.105917 -1.513856 -4.275882 -5.039041 -5.612872 -2.953555 4e-06 -11.020523 -2e-06 -6.111296 -15.895332 -3.840471 -0.0 -0.0 0.0 -10.283371 -5.680288 -4.341837 11.028294 -11.302405 -2.372633 -1.384268 -14.23858 -6.320121 -0.625437 -26.924189 -3.827601 -4.088756 -49.423496 -3.736636 -13.708526 -7.363477 -3.72094 18.141151 -14.052741 -3.242675 6e-06 -18.78727 -4e-06 -0.429712 -8.456047 2.555502 1e-06 1e-06 3e-06 -15.923536 -20.094484 -5.473583 30.419214 -7.190827 1.735925 2e-06 -8.162927 -2e-06 -1.8619 -22.861473 -6.167943 -0.0 -3e-06 -2e-06 179.841217 1.257775 -17.843363 5.470003 0.032536 -0.095044 -74.084129 -8.319688 -6.188488 -4.339901 1.48517 2.172325 -0.999999 -0.0 0.0 0.607182 -1.827295 -14.906754 6.466151 -0.005281 -0.188334 -75.033684 -4.151003 -4.613993 -3.936908 0.572443 1.677202 -1.000001 0.0 0.0 
0.0 0.0 0.0 0.0 -0.0 0.0 3.807779 101.099251 1.193635 90.401131 -1.292472 90.250145 -2.081082 -0.324773 0.070931 -11.466303 -0.455602 -0.006408 17.068134 0.516794 -1.73624 19.314096 -3.022252 2.638352 -2.576943 -0.551483 2.335304 -31.275299 -1.176981 3.688816 6e-06 -0.0 -1e-06 -0.016952 0.028293 -0.049627 0.027643 0.045106 -0.056804 0.038094 0.006393 -0.032642 -148.941803 -64.733017 170.441833 33.703537 -47.180336 1.510307 23.301422 -0.093018 0.074324 1.993886 -1.136402 5.365936 17.636625 -26.32272 52.411179 -19.46666 -14.395594 29.410381 -1e-06 -8.774821 -0.0 16.374975 -18.11466 5.999162 -0.609776 -1.795654 -3.889328 -4.807087 -11.046809 -2.937854 4e-06 -20.976015 1e-06 -5.019968 -25.033556 -4.031882 6e-06 2e-06 1e-06 -10.634533 -5.686971 -3.565588 10.573272 -17.922949 -3.113904 3e-06 -13.821209 0.0 -0.501776 -31.181505 -4.027016 -11.630441 -59.970966 7.467391 -13.982712 -7.150198 -2.875042 13.772727 -8.401491 -3.218242 0.347736 -34.211544 0.771653 -0.963027 -17.733368 2.621017 1e-06 -1e-06 -0.0 -17.346415 -20.095215 -4.201783 21.757555 -1.638376 3.866427 3e-06 -6.338823 -0.0 -1.697588 -22.591742 -6.194005 -0.0 -1e-06 -1e-06 30.342876 -71.057533 168.674133 33.861202 -56.638988 3.190036 26.153219 0.175145 0.232668 1.251369 9.396008 -3.646002 22.182108 -20.375887 49.933319 -16.701807 -16.743525 28.476528 -2e-06 -12.690598 -2e-06 16.046455 -17.593439 2.710772 -0.10592 -1.513855 -4.275882 -5.039041 -5.612871 -2.953556 4e-06 -11.02052 -3e-06 -6.111298 -15.895329 -3.84047 -1e-06 -1e-06 -1e-06 -10.283367 -5.680288 -4.341838 11.02829 -11.302402 -2.372634 -1.384269 -14.238579 -6.320122 -0.625437 -26.924189 -3.827606 -4.100577 -49.496269 -3.719425 -13.70852 -7.363476 -3.72094 18.141146 -14.052734 -3.242673 6e-06 -18.787262 -6e-06 -0.429711 -8.456044 2.555502 -0.0 2e-06 3e-06 -15.923534 -20.094482 -5.473587 30.419207 -7.190823 1.735926 2e-06 -8.162927 -2e-06 -1.861902 -22.861464 -6.167941 1e-06 -4e-06 -1e-06 179.769836 1.212152 -17.734823 5.444956 0.032916 -0.082193 -73.98542 -8.269053 -6.293176 -4.308593 1.500369 2.178518 -0.999999 -0.0 -1e-06 0.534189 -1.781399 -14.843321 6.467793 0.000325 -0.175895 -75.005066 -4.299835 -4.572176 -3.904896 0.582383 1.680894 -1.000003 0.0 0.0 
0.0 0.0 0.0 0.0 -0.0 0.0 3.672273 101.100754 1.064652 90.407112 -1.319036 90.326271 -2.07799 -0.332572 0.064409 -11.476862 -0.435658 0.032961 17.120611 0.437154 -1.709894 19.302818 -3.056258 2.65775 -2.609732 -0.546704 2.321617 -31.213839 -1.144895 3.661783 6e-06 0.0 -1e-06 -0.015741 0.029514 -0.044233 0.011759 0.047709 -0.048403 0.024291 0.006019 -0.030957 -148.903534 -64.699005 170.418091 33.718475 -47.263725 1.506807 23.31423 -0.119057 0.0738 1.94142 -0.974008 5.262783 17.636627 -26.322733 52.411198 -19.46666 -14.395598 29.410389 -1e-06 -8.774822 -0.0 16.34988 -18.111423 6.000824 -0.609777 -1.795654 -3.889328 -4.807088 -11.04681 -2.937852 4e-06 -20.976019 2e-06 -5.019969 -25.033556 -4.031882 5e-06 0.0 1e-06 -10.634533 -5.686969 -3.565589 10.573274 -17.922951 -3.113899 4e-06 -13.821211 3e-06 -0.501779 -31.181505 -4.027013 -11.640574 -59.938087 7.44334 -13.982713 -7.150197 -2.875041 13.77273 -8.401492 -3.218242 0.347735 -34.211544 0.771654 -0.963029 -17.733368 2.62102 2e-06 -1e-06 -0.0 -17.346416 -20.095217 -4.201786 21.757557 -1.638376 3.866428 2e-06 -6.338826 1e-06 -1.697589 -22.591749 -6.194007 -1e-06 -1e-06 -2e-06 30.250328 -71.068764 168.782761 34.167248 -56.617107 3.185935 26.284389 0.212078 0.22495 1.22446 9.432016 -3.622889 22.182121 -20.375896 49.933323 -16.701818 -16.743532 28.476538 -2e-06 -12.690603 -2e-06 16.05579 -17.568707 2.714868 -0.105919 -1.513856 -4.275883 -5.039041 -5.612873 -2.953557 4e-06 -11.020527 -2e-06 -6.111298 -15.895338 -3.840472 -0.0 -0.0 -1e-06 -10.283371 -5.680289 -4.341838 11.028296 -11.302409 -2.372636 -1.384269 -14.238584 -6.320124 -0.625438 -26.9242 -3.827605 -4.126067 -49.520473 -3.692023 -13.708526 -7.363479 -3.720939 18.141153 -14.052742 -3.242676 7e-06 -18.787275 -3e-06 -0.42971 -8.456047 2.555505 -0.0 -0.0 1e-06 -15.923539 -20.094494 -5.473588 30.419218 -7.190827 1.735927 3e-06 -8.16293 -1e-06 -1.861902 -22.861483 -6.167945 0.0 -3e-06 -2e-06 179.669754 1.140887 -17.648893 5.43635 0.030394 -0.082145 -73.917007 -8.196291 -6.362338 -4.266867 1.506062 2.179276 -0.999999 -0.0 0.0 0.467363 -1.71394 -14.808144 6.419714 0.005289 -0.183756 -74.991798 -4.407079 -4.530316 -3.880669 0.586073 1.68279 -1.000002 0.0 -0.0 
